<?xml version="1.0" encoding="UTF-8"?>
<!DOCTYPE svg PUBLIC "-//W3C//DTD SVG 1.1//EN" "http://www.w3.org/Graphics/SVG/1.1/DTD/svg11.dtd">
<!-- Creator: CorelDRAW -->
<svg xmlns="http://www.w3.org/2000/svg" xml:space="preserve" width="1.3546mm" height="1.3546mm" version="1.1" style="shape-rendering:geometricPrecision; text-rendering:geometricPrecision; image-rendering:optimizeQuality; fill-rule:evenodd; clip-rule:evenodd"
viewBox="0 0 135.46 135.46"
 xmlns:xlink="http://www.w3.org/1999/xlink"
 xmlns:xodm="http://www.corel.com/coreldraw/odm/2003">
 <defs>
  <style type="text/css">
   <![CDATA[
    .fil0 {fill:#05203B;fill-rule:nonzero}
   ]]>
  </style>
 </defs>
 <g id="Camada_x0020_1">
  <metadata id="CorelCorpID_0Corel-Layer"/>
  <g id="_2684981266352">
   <path class="fil0" d="M59.63 3.64c-2.54,3.42 -52.12,104.03 -57.88,117.57 -2.37,5.54 -2.37,6.36 0.17,10.11 3.89,5.71 11.51,5.54 15.91,-0.49 2.88,-3.91 32.49,-62.29 44.85,-88.38l4.91 -10.6 9.64 18.75c5.25,10.44 16.25,32.61 24.54,49.25 8.29,16.79 16.42,31.63 17.94,33.1 4.57,4.08 12.18,2.61 14.89,-2.77 2.03,-4.08 1.19,-6.36 -10.49,-30.17 -25.39,-52.02 -48.74,-97.51 -50.6,-98.66 -4.06,-2.6 -11.17,-1.3 -13.88,2.29l0 0z"/>
   <path class="fil0" d="M64.2 79.14c-5.92,12.72 -13.03,21.2 -21.15,25.11 -4.91,2.28 -5.93,3.42 -3.56,3.42 5.93,0 18.79,-4.23 24.2,-8.15l5.25 -3.59 5.08 4.08c2.7,2.28 7.27,4.57 10.15,5.06 2.71,0.48 7.45,1.46 10.15,1.95 6.6,1.14 6.44,-0.32 -0.33,-3.1 -7.79,-3.09 -17.27,-13.69 -20.82,-23.31 -1.69,-4.41 -3.55,-8.48 -4.06,-9.14 -0.51,-0.65 -2.88,2.78 -4.91,7.67l0 0z"/>
  </g>
 </g>
</svg>
