<?xml version="1.0" encoding="UTF-8"?>
<!DOCTYPE svg PUBLIC "-//W3C//DTD SVG 1.1//EN" "http://www.w3.org/Graphics/SVG/1.1/DTD/svg11.dtd">
<!-- Creator: CorelDRAW -->
<svg xmlns="http://www.w3.org/2000/svg" xml:space="preserve" width="200" height="50" version="1.1" style="shape-rendering:geometricPrecision; text-rendering:geometricPrecision; image-rendering:optimizeQuality; fill-rule:evenodd; clip-rule:evenodd"
viewBox="0 0 29700 21000"
 xmlns:xlink="http://www.w3.org/1999/xlink"
 xmlns:xodm="http://www.corel.com/coreldraw/odm/2003">
 <defs>
  <style type="text/css">
   <![CDATA[
    .fil0 {fill:#05203B;fill-rule:nonzero}
   ]]>
  </style>
 </defs>
 <g id="Camada_x0020_1">
  <metadata id="CorelCorpID_0Corel-Layer"/>
  <g id="_2720546986912">
   <path class="fil0" d="M13298.4 9834.76c-107.08,14.53 -211.1,89.49 -252.41,181.27 -89.48,197.34 28.3,419.91 240.94,455.86 95.6,16.06 208.04,-19.12 279.94,-87.2 36.71,-35.94 43.59,-62.71 19.88,-83.37 -21.42,-19.88 -44.36,-15.29 -77.25,13.77 -71.9,65.78 -184.33,87.96 -261.58,52.01 -183.57,-83.37 -188.16,-332.71 -8.42,-420.67 35.19,-16.83 53.54,-20.65 97.14,-20.65 63.48,0.76 104.02,17.59 163.68,68.07 45.13,38.24 70.37,43.6 87.96,17.59 17.59,-25.24 15.3,-40.54 -10.71,-70.37 -63.48,-71.89 -187.39,-119.31 -279.18,-106.31l0.01 0z"/>
   <path class="fil0" d="M10246.6 9853.88c-11.47,16.06 -235.58,487.98 -261.58,551.47 -10.71,26 -10.71,29.83 0.76,47.42 17.6,26.77 52.01,26 71.9,-2.3 13,-18.35 146.85,-292.17 202.69,-414.55l22.18 -49.72 43.6 87.96c23.71,48.95 73.42,152.97 110.9,230.99 37.48,78.78 74.19,148.38 81.08,155.26 20.65,19.12 55.07,12.24 67.3,-13 9.18,-19.12 5.36,-29.83 -47.42,-141.5 -114.73,-243.99 -220.28,-457.39 -228.69,-462.74 -18.36,-12.24 -50.48,-6.12 -62.72,10.71l0 0z"/>
   <path class="fil0" d="M10610.67 9851.59c-19.12,19.12 -20.65,37.47 -3.82,60.42 10.71,16.06 16.83,16.83 118.55,16.83 120.85,0 146.86,6.88 177.45,46.65 37.48,49.72 34.42,110.91 -8.41,161.39 -31.36,37.48 -58.13,44.36 -168.27,44.36 -108.61,0 -125.44,5.35 -125.44,42.07 0,38.24 23.71,49.71 104.79,49.71l71.13 0 93.31 99.44c78.02,82.6 97.14,99.43 115.49,99.43 29.07,0 51.25,-31.36 39.01,-55.84 -4.59,-9.18 -35.95,-47.42 -69.6,-84.9 -34.42,-36.71 -61.95,-70.36 -61.95,-74.19 0,-3.82 9.94,-11.47 22.18,-17.59 59.66,-31.36 103.25,-111.67 103.25,-191.98 0,-81.84 -36.71,-142.26 -111.67,-183.57 -39,-22.18 -44.36,-22.94 -160.62,-25.24 -112.43,-3.06 -120.08,-2.29 -135.38,13l0 0.01z"/>
   <path class="fil0" d="M11123.13 9851.59c-19.88,19.88 -20.65,42.06 -0.76,61.95 13.76,13.77 25.24,15.3 125.43,15.3 100.97,0 111.68,1.53 134.62,16.83 36.71,25.24 55.07,53.53 58.9,92.54 6.11,48.95 -19.13,98.67 -61.96,123.91 -30.59,17.59 -39.77,19.12 -143.03,19.12 -149.91,0.77 -140.73,-8.41 -140.73,144.56 0,132.32 3.82,146.09 42.83,146.09 35.95,0 45.13,-22.95 45.13,-116.26l0 -82.6 59.66 0 58.89 0.76 91.79 98.67c74.19,80.31 94.84,99.43 111.67,99.43 11.47,0 26.77,-5.35 32.89,-12.24 25.24,-24.47 14.53,-45.89 -59.66,-126.2l-72.67 -78.01 28.3 -20.65c41.31,-30.6 59.66,-52.78 79.55,-95.61 37.48,-81.84 15.3,-188.92 -50.48,-247.05 -53.54,-47.42 -66.54,-50.48 -200.39,-53.54 -117.79,-3.06 -124.68,-2.3 -139.97,13l-0.01 0z"/>
   <path class="fil0" d="M11647.06 9853.11c-23.71,19.13 -24.47,29.07 -3.82,55.84l15.3 19.89 178.21 0c187.39,0 196.57,-1.53 207.28,-35.95 3.06,-13.01 -0.77,-22.19 -14.54,-36.72l-19.12 -19.12 -171.33 0c-162.15,0 -172.85,0.77 -191.98,16.06l0 0z"/>
   <path class="fil0" d="M12128.93 9853.11l-19.89 15.3 0 289.12c0,270 0.77,289.88 13.77,301.36 19.88,18.35 52.01,16.06 65.78,-3.83 9.94,-13.77 12.23,-40.54 12.23,-133.85l0 -117.02 122.38 0c122.38,0 122.38,0 130.79,-18.36 12.24,-26.77 2.29,-57.36 -20.65,-65.78 -10.71,-4.59 -67.31,-7.65 -125.44,-7.65l-106.31 0 -2.3 -88.72c-1.53,-48.95 -0.76,-90.26 0.77,-91.78 1.53,-1.54 66.54,-3.06 143.03,-3.06l140.73 0 12.24 -19.12c16.06,-24.48 9.17,-52.02 -16.06,-63.49 -13.01,-6.12 -72.67,-9.18 -175.16,-9.18 -146.09,0 -156.79,0.77 -175.92,16.06l0.01 0z"/>
   <path class="fil0" d="M12592.43 9849.29c-20.65,14.54 -22.18,48.95 -3.06,66.55 12.24,11.47 37.48,13 190.45,13 160.62,0 176.69,-1.53 188.16,-13.77 18.36,-19.89 16.06,-52.01 -3.83,-65.78 -14.53,-9.94 -45.89,-12.23 -185.86,-12.23 -139.97,0 -171.33,2.29 -185.86,12.23z"/>
   <path class="fil0" d="M13709.13 9849.29c-20.65,14.54 -22.18,48.95 -3.06,66.55 12.24,11.47 36.71,13 187.39,13 163.68,0 174.39,-0.77 188.92,-15.3 19.89,-19.89 19.12,-39.77 -2.29,-59.66 -16.83,-16.06 -23.71,-16.83 -185.86,-16.83 -139.97,0 -170.56,2.3 -185.1,12.24l0 0z"/>
   <path class="fil0" d="M14187.17 9850.82c-16.83,18.36 -16.83,49.72 0.76,65.01 10.71,9.18 36.72,12.24 133.09,14.54 132.32,2.29 143.79,6.12 180.51,59.66 32.89,48.95 14.53,131.55 -38.25,169.8 -22.94,16.06 -35.18,17.59 -149.91,21.41 -112.43,3.06 -126.2,5.36 -136.14,18.36 -8.42,11.47 -10.71,42.83 -10.71,126.97 0,124.67 6.12,145.32 45.13,145.32 39.01,0 46.65,-18.36 46.65,-113.2l0 -85.66 56.6 0 55.84 0 79.54 85.66c101.73,110.91 104.79,113.2 130.03,113.2 29.07,0 51.25,-31.36 39.01,-55.83 -3.83,-9.18 -37.48,-48.19 -73.43,-86.43l-65.78 -70.37 21.42 -13c64.25,-41.31 101.73,-103.26 106.32,-179.75 5.35,-68.83 -16.07,-124.67 -65.78,-170.56 -52.78,-48.95 -91.02,-58.89 -230.23,-58.89 -99.43,0 -113.96,1.53 -124.67,13.76l0 0z"/>
   <path class="fil0" d="M11637.88 10128.47c-13,14.53 -14.53,29.06 -14.53,163.67 0,134.62 1.53,149.15 14.53,163.68 13.77,15.3 21.42,16.07 197.34,16.07 172.09,0 182.8,-0.77 197.33,-15.3 19.89,-19.89 19.12,-38.25 0,-59.66 -15.29,-16.06 -21.41,-16.83 -168.27,-16.83l-152.97 0 0 -87.96 0 -87.96 103.26 0c95.6,0 104.02,-0.76 118.55,-16.82 19.12,-21.42 19.89,-39.77 0,-59.66 -13.77,-13.77 -25.24,-15.3 -147.62,-15.3 -125.44,0 -133.85,0.76 -147.61,16.06l-0.01 0.01z"/>
   <path class="fil0" d="M12578.66 10128.47c-13,14.53 -14.53,31.35 -16.82,159.09 -2.3,136.14 -2.3,143.79 13.76,163.68l16.07 20.65 185.86 0c170.56,0 186.62,-1.53 198.1,-13.77 17.59,-19.12 16.06,-44.36 -2.3,-62.72 -14.53,-14.53 -25.24,-15.3 -168.27,-15.3l-152.97 0 0 -87.96 0 -87.95 103.26 0c93.31,0 104.78,-1.53 118.55,-15.3 8.41,-8.42 15.3,-22.18 15.3,-30.6 0,-8.41 -6.89,-22.18 -15.3,-30.59 -13.77,-13.77 -25.24,-15.3 -147.62,-15.3 -125.44,0 -133.85,0.77 -147.62,16.06l0 0.01z"/>
   <path class="fil0" d="M13696.13 10131.53c-19.12,18.35 -19.12,19.88 -19.12,159.09 0,130.79 0.76,142.26 16.06,161.38l15.3 19.89 182.03 0c166.74,0 182.8,-1.53 194.28,-13.77 17.59,-19.12 16.06,-44.36 -2.3,-62.72 -14.53,-14.53 -25.24,-15.3 -164.44,-15.3l-149.15 0 0 -87.95 0 -87.96 105.55 0c91.78,0 107.85,-1.53 117.79,-13.77 19.89,-22.94 21.42,-38.24 5.35,-58.13l-15.3 -19.88 -133.85 0c-131.55,0 -133.85,0 -152.2,19.12z"/>
   <path class="fil0" d="M10267.25 10208.01c-26.77,59.66 -58.89,99.43 -95.61,117.79 -22.18,10.71 -26.76,16.06 -16.06,16.06 26.77,0 84.9,-19.88 109.38,-38.24l23.71 -16.83 22.94 19.12c12.24,10.71 32.89,21.42 45.9,23.71 12.23,2.3 33.65,6.89 45.89,9.18 29.83,5.35 29.06,-1.53 -1.53,-14.53 -35.19,-14.54 -78.02,-64.25 -94.08,-109.38 -7.65,-20.65 -16.06,-39.77 -18.36,-42.83 -2.29,-3.06 -13,13 -22.18,35.95l0 0z"/>
  </g>
 </g>
</svg>
